<?xml version="1.0" encoding="utf-8"?>
<svg xmlns="http://www.w3.org/2000/svg" viewBox="165.8 109.3 539.5 539.9" width="539.5pt" height="539.9pt">
  <path id="Path0" stroke-width="0" stroke="none" stroke-opacity="0" fill="#1A1A1A" fill-opacity="1" fill-rule="evenodd" stroke-linecap="round" stroke-linejoin="round" d="M165.9,648.8 C165.8,648.6 165.8,527.2 165.8,379 165.8,379 165.9,109.5 165.9,109.5 165.9,109.5 435.6,109.4 435.6,109.4 435.6,109.4 705.3,109.3 705.3,109.3 705.3,109.3 705.3,379.2 705.3,379.2 705.3,379.2 705.3,649.2 705.3,649.2 705.3,649.2 435.7,649.2 435.7,649.2 220.2,649.2 166,649.1 165.9,648.8 Z " transform="matrix(1, 0, 0, 1, 7.105427357601002e-15, 0)"/>
  <path id="Path1" stroke-width="0" stroke="none" stroke-opacity="0" fill="#FFFFFF" fill-opacity="1" fill-rule="evenodd" stroke-linecap="round" stroke-linejoin="round" d="M441.8,452.4 C462.7,449.6 479,439.7 489.7,423.2 492.3,419.2 494.2,415.5 493.8,415.2 493.4,414.8 483.7,410.6 483.1,410.6 482.9,410.6 482.3,411.3 481.8,412.4 477.1,421.5 469.3,429.1 459.6,433.9 452.5,437.4 445.9,439.3 437.4,440.2 422.8,441.9 407.4,438.2 395.7,430.4 379.3,419.4 370,401.2 370,379.9 370,368.4 372.3,358.8 377.3,349.4 383.1,338.4 392,329.8 403.3,324.3 408.2,322 411.2,321 416.4,319.9 422.3,318.6 424.9,318.3 430.9,318.3 437.9,318.3 442.3,318.8 448.8,320.4 463,323.9 474.1,332.8 480.5,346 481.2,347.4 481.9,348.7 482,348.8 482.1,348.9 482.6,348.8 483.2,348.5 483.7,348.2 485.5,347.5 487,346.8 492.8,344.3 493.1,344.1 493.1,343.6 493.1,343 492.1,340.9 490.4,337.8 485.8,329.5 477.6,320.9 469.6,316.1 461.4,311.1 454.4,308.6 444.9,306.9 421.7,303 399.3,308.9 382.2,323.5 370.9,333.1 362.8,346.8 359.2,362.2 357,371.7 356.9,386.1 359,395.8 361,405.4 364.4,413.7 369.4,421.4 370.7,423.3 372.3,425.6 372.9,426.3 381.4,436.7 391.9,444.1 404.2,448.6 411,451 417.1,452.3 425.6,453 428.2,453.2 438.6,452.9 441.8,452.4 Z " transform="matrix(1, 0, 0, 1, 7.105427357601002e-15, 0)"/>
  <path id="Path2" stroke-width="0" stroke="none" stroke-opacity="0" fill="#FFFFFF" fill-opacity="1" fill-rule="evenodd" stroke-linecap="round" stroke-linejoin="round" d="M591.3,452.4 C605.9,450.5 618.5,445 629.1,436.1 631.5,434.1 636.4,429.2 637.6,427.8 637.9,427.3 638.3,426.8 638.5,426.6 640.2,425.1 644.4,418.4 647,413.1 650.9,405.2 653.2,397 654.1,387.6 655.6,372.9 653.1,358.2 647,345.8 643.4,338.4 639.8,333.2 634.3,327.6 632.5,325.7 631,324 631,323.9 631,323.7 631.2,323.3 631.5,322.9 636.7,316.4 638.7,313.6 638.6,313.2 638.5,313 636.6,311.4 634.3,309.7 630.5,306.7 630.2,306.5 629.8,307 629.6,307.3 628,309.4 626.3,311.6 624.6,313.8 622.9,316 622.5,316.5 622.5,316.5 621.8,317.3 621.8,317.3 621.8,317.3 620.2,316.3 620.2,316.3 610.6,310.5 600.4,307.3 588,306 580.2,305.3 573.1,305.7 564.4,307.4 550.4,310.3 535.8,318.5 526.3,328.9 519.6,336.3 514.6,345 511.1,355.1 509.7,359.4 508,368.3 507.6,374.7 507.3,379 507.6,387.1 508.2,390.5 509.1,395.8 510,399.9 510.6,402 511.8,406.2 514.7,413.2 516.6,416.4 516.9,416.9 517.5,418 518,418.9 520.3,422.9 524.1,427.7 528.4,432.1 528.4,432.1 530.9,434.7 530.9,434.7 530.9,434.7 530.1,435.8 530.1,435.8 529.7,436.4 527.9,438.7 526.1,440.9 524.3,443.2 522.9,445.2 522.9,445.4 522.9,445.5 523.6,446.2 524.4,446.8 525.2,447.5 527.1,448.9 528.5,450 530,451.1 531.3,452 531.4,452 531.7,451.8 533.5,449.6 536.8,445.3 538.3,443.3 539.6,441.7 539.8,441.6 540,441.6 541.5,442.3 543.2,443.3 550,447.1 557.1,449.8 564.2,451.3 568.8,452.2 572.1,452.7 576.4,453 579.2,453.2 588.1,452.9 591.3,452.4 Z " transform="matrix(1, 0, 0, 1, 7.105427357601002e-15, 0)"/>
  <path id="Path3" stroke-width="0" stroke="none" stroke-opacity="0" fill="#FFFFFF" fill-opacity="1" fill-rule="evenodd" stroke-linecap="round" stroke-linejoin="round" d="M228.8,450.1 C228.9,450 229,421.7 229,379.2 229,379.2 228.9,308.6 228.9,308.6 228.9,308.6 222.8,308.5 222.8,308.5 222.8,308.5 216.6,308.5 216.6,308.5 216.6,308.5 216.4,309.1 216.4,309.1 216.2,310.2 216.2,449.4 216.5,450 216.7,450.4 217.4,450.5 222.6,450.4 225.9,450.4 228.6,450.3 228.8,450.1 Z " transform="matrix(1, 0, 0, 1, 7.105427357601002e-15, 0)"/>
  <path id="Path4" stroke-width="0" stroke="none" stroke-opacity="0" fill="#FFFFFF" fill-opacity="1" fill-rule="evenodd" stroke-linecap="round" stroke-linejoin="round" d="M257.6,450.2 C257.6,450.2 257.7,439 257.7,425.4 257.7,411.9 257.8,400.4 257.9,399.9 257.9,399.9 258,399 258,399 258,399 277.4,399 277.4,399 277.4,399 296.8,399 296.8,399 296.8,399 296.8,424.5 296.8,424.5 296.8,440.4 296.9,450.1 297.1,450.2 297.5,450.4 308.9,450.4 309.3,450.2 309.6,450 309.7,387.4 309.4,386.8 309.2,386.6 302.6,386.5 277.2,386.6 277.2,386.6 245.3,386.6 245.3,386.6 245.3,386.6 245.3,418.3 245.3,418.3 245.2,449.5 245.2,450.1 245.7,450.3 246.3,450.5 257.4,450.4 257.6,450.2 Z " transform="matrix(1, 0, 0, 1, 7.105427357601002e-15, 0)"/>
  <path id="Path5" stroke-width="0" stroke="none" stroke-opacity="0" fill="#FFFFFF" fill-opacity="1" fill-rule="evenodd" stroke-linecap="round" stroke-linejoin="round" d="M338.2,450.2 C338.5,450.1 338.5,435.8 338.5,379.3 338.5,379.3 338.4,308.6 338.4,308.6 338.4,308.6 332.2,308.5 332.2,308.5 332.2,308.5 326,308.5 326,308.5 326,308.5 326,379.4 326,379.4 326,379.4 326,450.3 326,450.3 326,450.3 327.5,450.4 327.5,450.4 329.5,450.5 337.7,450.3 338.2,450.2 Z " transform="matrix(1, 0, 0, 1, 7.105427357601002e-15, 0)"/>
  <path id="Path6" stroke-width="0" stroke="none" stroke-opacity="0" fill="#FFFFFF" fill-opacity="1" fill-rule="evenodd" stroke-linecap="round" stroke-linejoin="round" d="M439.9,423.5 C446.3,422.1 452.2,419.7 456.1,416.8 459.1,414.6 463.6,409.9 465.4,407.1 466.3,405.7 467.2,404.3 467.2,404 467.3,403.6 466.9,403.3 465,402.4 462,401 456.6,398.7 456.3,398.7 456.1,398.7 455.6,399.4 455,400.3 450.3,407.4 441.2,411.7 430.9,411.7 426.9,411.7 423.8,411.3 420.2,410.1 416.8,408.9 415.2,408 412.1,405.7 406.3,401.4 402.3,394.8 400.6,387.1 399.4,381.4 399.9,372.9 401.6,367.4 405.4,355.8 414.5,348.2 426.7,346.6 434.3,345.6 442.6,347.5 448.2,351.5 450.4,353 453,355.9 454.4,358.3 455,359.3 455.7,360.2 455.9,360.3 456.1,360.4 456.8,360.2 457.5,359.8 458.2,359.5 458.9,359.2 458.9,359.2 459.1,359.2 461,358.4 464.7,356.7 467.5,355.4 467.4,355.6 465.3,352 459.7,342.5 450.4,336.4 438.4,334.4 435,333.8 426.9,333.7 423.9,334.3 414.2,336 406.3,340 399.8,346.6 393.8,352.6 389.9,360.5 388.1,369.7 387.6,372.8 387.5,374.2 387.5,379.5 387.5,385.8 387.6,387.2 388.8,392 391.4,403 399,413.1 408.9,418.6 409.6,419 410.6,419.6 411.2,419.9 413.7,421.3 419.7,423.1 425.3,424.1 427.1,424.3 438,424 439.9,423.5 Z " transform="matrix(1, 0, 0, 1, 7.105427357601002e-15, 0)"/>
  <path id="Path7" stroke-width="0" stroke="none" stroke-opacity="0" fill="#FFFFFF" fill-opacity="1" fill-rule="evenodd" stroke-linecap="round" stroke-linejoin="round" d="M309.4,371.3 C309.7,370.6 309.6,309.2 309.4,308.8 309.2,308.5 307.7,308.5 303,308.5 303,308.5 297,308.6 297,308.6 297,308.6 296.9,333.9 296.9,333.9 296.9,333.9 296.8,359.2 296.8,359.2 296.8,359.2 277.7,359.2 277.7,359.2 267.2,359.2 258.4,359.2 258.1,359.1 257.8,358.9 257.7,356.2 257.7,333.9 257.7,320.2 257.6,308.8 257.4,308.7 257.3,308.6 254.5,308.5 251.3,308.5 251.3,308.5 245.3,308.6 245.3,308.6 245.3,308.6 245.3,339.5 245.3,339.5 245.2,356.5 245.3,370.7 245.3,371.1 245.3,371.1 245.5,371.7 245.5,371.7 245.5,371.7 277.4,371.7 277.4,371.7 306.2,371.7 309.3,371.7 309.4,371.3 Z " transform="matrix(1, 0, 0, 1, 7.105427357601002e-15, 0)"/>
  <path id="Path8" stroke-width="0" stroke="none" stroke-opacity="0" fill="#1A1A1A" fill-opacity="1" fill-rule="evenodd" stroke-linecap="round" stroke-linejoin="round" d="M574.2,440.2 C569.7,439.7 564.4,438.6 560.3,437.3 556.5,436 548.2,432.1 548,431.5 547.8,431.1 556.8,419.1 557.5,418.7 557.7,418.6 559.3,419.2 561,420 565,422 568.4,423.1 574,424.1 577.2,424.7 584.9,424.7 588.2,424.1 601.2,421.8 610.5,415.9 617.1,406.2 618.2,404.5 619.1,403.2 619.1,403.1 619.1,403 619.5,402 620,400.9 622.2,396.2 623.2,392.9 624,387.5 624.7,383 624.5,372.8 623.6,368.6 622,360.9 618.9,354.2 614.4,348.8 613.7,348 613.1,347.2 613.1,347.1 613.1,346.9 614.3,345.3 615.7,343.4 617.1,341.6 619.2,338.8 620.4,337.3 621.6,335.8 622.7,334.5 623,334.4 623.9,334 630.1,341.2 633.3,346.5 638.4,355 641,363.5 641.8,374.6 642.2,381.3 641.5,390.5 640,396.3 635.6,413.4 624.4,427 608.6,434.5 598.3,439.4 585.7,441.5 574.2,440.2 Z " transform="matrix(1, 0, 0, 1, 7.105427357601002e-15, 0)"/>
  <path id="Path9" stroke-width="0" stroke="none" stroke-opacity="0" fill="#1A1A1A" fill-opacity="1" fill-rule="evenodd" stroke-linecap="round" stroke-linejoin="round" d="M536.1,421.9 C527.4,412.9 522.3,401.7 520.5,388.1 520,384.1 520,374.8 520.5,371 521.1,366.4 521.4,364.9 522.5,361.1 526.2,347.6 534.3,336.4 546.3,328.4 555.2,322.4 566.2,318.9 578.4,318.3 586,317.9 596.3,319.5 603.6,322.2 606.4,323.2 612.3,326.1 613.4,326.9 613.4,326.9 614,327.4 614,327.4 614,327.4 609.6,333.2 609.6,333.2 603.9,340.6 604.3,340.1 603.3,339.6 593.6,334.2 582.4,332.5 571.9,334.7 555.5,338.2 543.2,349.6 539.2,365 537.4,372.3 536.9,379.1 537.8,386.2 539,395.2 542,402.8 546.8,408.7 547.8,410 548.7,411.3 548.7,411.4 548.7,411.9 539.1,424.2 538.7,424.2 538.5,424.2 537.3,423.2 536.1,421.9 Z " transform="matrix(1, 0, 0, 1, 7.105427357601002e-15, 0)"/>
  <path id="Path10" stroke-width="0" stroke="none" stroke-opacity="0" fill="#1A1A1A" fill-opacity="1" fill-rule="evenodd" stroke-linecap="round" stroke-linejoin="round" d="M577.7,412 C576.3,411.9 574.1,411.5 572.8,411.2 569.8,410.4 565.9,408.8 565.8,408.3 565.8,408.1 566.5,406.9 567.5,405.6 568.5,404.3 570,402.4 570.9,401.2 571.8,400.1 574,397.2 575.8,394.9 577.6,392.5 579.8,389.7 580.6,388.7 583.8,384.5 586.4,381.2 588.1,379 589.2,377.7 591.1,375.1 592.5,373.3 593.9,371.5 595.9,368.9 596.9,367.6 598,366.3 600.1,363.5 601.7,361.4 603.4,359.3 604.9,357.5 605.1,357.5 605.9,357.5 609.3,363.8 610.4,367.5 611.9,372.5 612.4,380 611.6,385.8 609.6,399 601.4,408.2 588.6,411.3 586.9,411.7 581.8,412.3 580.9,412.3 580.6,412.2 579.2,412.1 577.7,412 Z " transform="matrix(1, 0, 0, 1, 7.105427357601002e-15, 0)"/>
  <path id="Path11" stroke-width="0" stroke="none" stroke-opacity="0" fill="#1A1A1A" fill-opacity="1" fill-rule="evenodd" stroke-linecap="round" stroke-linejoin="round" d="M555.5,399.2 C551.8,393.5 550,387.1 550,379.1 550.1,370.4 552.1,363.7 556.6,357.7 564,347.8 579,343.7 591.7,348 594.2,348.9 596.1,349.8 596.1,350.2 596.1,350.4 594.6,352.5 592.8,354.9 590.9,357.2 588.5,360.4 587.3,361.9 586.1,363.5 584.7,365.4 584,366.2 581.9,368.9 578.7,373 576.5,375.8 575.4,377.4 573.6,379.6 572.7,380.8 571.8,382 570,384.3 568.7,386 558.7,398.9 557.3,400.7 556.9,400.7 556.7,400.7 556.1,400 555.5,399.2 Z " transform="matrix(1, 0, 0, 1, 7.105427357601002e-15, 0)"/>
</svg>