<svg xmlns="http://www.w3.org/2000/svg" version="1.1" xmlns:xlink="http://www.w3.org/1999/xlink" width="2000" height="1500" viewBox="0 0 2000 1500"><rect width="2000" height="1500" x="0" y="0" id="background" stroke="transparent" fill="#ffffff"></rect><svg xml:space="preserve" width="1500" height="1125" data-version="2" data-id="lg_54fR7MEqPblJM4jowI" viewBox="0 0 567 115" x="250" y="187.5"><rect width="100%" height="100%" fill="transparent"></rect><path fill="#1f09ff" d="M75.385 112.568v-48.51h7.26v21.65l16.63-21.65h8.84l-16.69 21.32 19.07 27.19h-9.04l-14.85-21.72-3.96 4.89v16.83Z"></path><rect width="35.11" height="48.51" x="-17.55" y="-24.25" fill="none" rx="0" ry="0" transform="translate(93.44 88.81)"></rect><path fill="#1f09ff" d="M112.935 112.568v-48.51h11.02q3.7 0 7.17.72 3.46.73 6.17 2.45 2.7 1.71 4.29 4.55 1.58 2.84 1.58 7 0 4.81-2.24 8.38-2.25 3.56-6.8 5.48l11.55 19.93h-8.52l-9.76-18.35q-1.13.07-2.74.1-1.62.03-2.68.03h-1.84v18.22Zm7.2-24.22h4.68q3.63 0 5.84-.93 2.21-.92 3.4-2.34t1.62-3.1q.43-1.69.43-3.14 0-3.23-1.49-5.11-1.48-1.88-4.09-2.71-2.61-.82-5.97-.82h-4.42Z"></path><rect width="32.74" height="48.51" x="-16.37" y="-24.25" fill="none" rx="0" ry="0" transform="translate(129.8 88.81)"></rect><path fill="#1f09ff" d="m145.675 112.568 24.29-42.18h-21.19v-6.33h32.8l-23.96 42.04h22.97v6.47Z"></path><rect width="35.9" height="48.51" x="-17.95" y="-24.25" fill="none" rx="0" ry="0" transform="translate(164.13 88.81)"></rect><path fill="#1f09ff" d="M196.955 112.568v-22.64l-16.83-25.87h8.84l11.69 19.14 11.68-19.14h8.78l-16.77 26v22.51Z"></path><rect width="40.99" height="48.51" x="-20.5" y="-24.25" fill="none" rx="0" ry="0" transform="translate(201.12 88.81)"></rect><path fill="#1f09ff" d="M232.725 113.228q-2.77 0-5.48-.7-2.7-.69-4.81-1.71-2.12-1.02-3.17-2.08l3.5-6.27q.72.59 2.27 1.55 1.55.96 3.6 1.68 2.05.73 4.09.73 3.37 0 5.65-1.58 2.27-1.59 2.27-4.62 0-2.51-1.32-4.16-1.32-1.65-3.46-2.91-2.15-1.25-4.62-2.41-2.48-1.15-4.72-2.6-2.58-1.72-4.49-4.56-1.91-2.83-1.91-7.32 0-4.42 2.01-7.26t5.35-4.26q3.33-1.42 7.29-1.42 3.17 0 5.41.66t3.76 1.59q1.52.92 2.38 1.65l-3.5 6q-1.12-1.19-3.37-2.21-2.24-1.02-5.01-1.02-3.24 0-5.15 1.48-1.91 1.49-1.91 4.39 0 2.58 1.71 4.39 1.72 1.82 4.39 3.3 2.67 1.49 5.51 3 2.84 1.52 5.02 3.57 1.78 1.58 3.03 3.96 1.26 2.37 1.26 5.34 0 4.49-2.08 7.59-2.08 3.11-5.58 4.66-3.5 1.55-7.92 1.55"></path><rect width="29.04" height="49.9" x="-14.52" y="-24.95" fill="none" rx="0" ry="0" transform="translate(234.28 88.78)"></rect><path fill="#1f09ff" d="m248.695 112.568 24.29-42.18h-21.18v-6.33h32.8l-23.96 42.04h22.97v6.47Z"></path><rect width="35.91" height="48.51" x="-17.95" y="-24.25" fill="none" rx="0" ry="0" transform="translate(267.15 88.81)"></rect><path fill="#1f09ff" d="M297.735 112.568v-42.04h-12.41v-6.47h32.28v6.47h-12.54v42.04Z"></path><rect width="32.28" height="48.51" x="-16.14" y="-24.25" fill="none" rx="0" ry="0" transform="translate(301.96 88.81)"></rect><path fill="#1f09ff" d="M341.495 113.228q-4.95 0-9.34-1.72-4.39-1.71-7.75-4.98-3.37-3.27-5.32-7.89-1.94-4.62-1.94-10.43 0-5.87 1.94-10.49 1.95-4.62 5.35-7.85 3.4-3.24 7.79-4.92 4.39-1.68 9.27-1.68t9.27 1.68q4.39 1.68 7.79 4.92 3.4 3.23 5.35 7.85 1.94 4.62 1.94 10.49 0 5.81-1.94 10.43-1.95 4.62-5.32 7.89-3.36 3.27-7.75 4.98-4.39 1.72-9.34 1.72m0-6.67q4.49 0 8.25-2.11t6.01-6.17q2.24-4.06 2.24-10 0-6.01-2.24-10.07-2.25-4.05-5.98-6.13-3.73-2.08-8.28-2.08-4.55 0-8.28 2.08-3.73 2.08-5.98 6.13-2.24 4.06-2.24 10.07 0 5.94 2.31 10t6.07 6.17q3.76 2.11 8.12 2.11"></path><rect width="48.7" height="49.96" x="-24.35" y="-24.98" fill="none" rx="0" ry="0" transform="translate(342 88.75)"></rect><path fill="#1f09ff" d="M370.865 112.568v-48.51h22.77v6.4h-15.44v13.73h12.01v6.47h-12.01v21.91Z"></path><rect width="22.77" height="48.51" x="-11.38" y="-24.25" fill="none" rx="0" ry="0" transform="translate(382.75 88.81)"></rect><path fill="#1f09ff" d="M412.115 112.568v-48.51h7.26v21.65l16.63-21.65h8.85l-16.7 21.32 19.07 27.19h-9.04l-14.85-21.72-3.96 4.89v16.83Z"></path><rect width="35.11" height="48.51" x="-17.55" y="-24.25" fill="none" rx="0" ry="0" transform="translate(430.17 88.81)"></rect><path fill="#1f09ff" d="M449.335 112.568v-48.51h7.4v48.51Z"></path><rect width="7.4" height="48.51" x="-3.7" y="-24.25" fill="none" rx="0" ry="0" transform="translate(453.54 88.81)"></rect><path fill="#1f09ff" d="M475.875 113.228q-2.78 0-5.48-.7-2.71-.69-4.82-1.71-2.11-1.02-3.17-2.08l3.5-6.27q.73.59 2.28 1.55 1.55.96 3.59 1.68 2.05.73 4.1.73 3.36 0 5.64-1.58 2.28-1.59 2.28-4.62 0-2.51-1.32-4.16-1.32-1.65-3.47-2.91-2.14-1.25-4.62-2.41-2.47-1.15-4.72-2.6-2.57-1.72-4.49-4.56-1.91-2.83-1.91-7.32 0-4.42 2.01-7.26 2.02-2.84 5.35-4.26 3.33-1.42 7.29-1.42 3.17 0 5.41.66 2.25.66 3.77 1.59 1.51.92 2.37 1.65l-3.5 6q-1.12-1.19-3.36-2.21-2.25-1.02-5.02-1.02-3.23 0-5.15 1.48-1.91 1.49-1.91 4.39 0 2.58 1.72 4.39 1.71 1.82 4.39 3.3 2.67 1.49 5.51 3 2.83 1.52 5.01 3.57 1.78 1.58 3.04 3.96 1.25 2.37 1.25 5.34 0 4.49-2.08 7.59-2.08 3.11-5.57 4.66-3.5 1.55-7.92 1.55"></path><rect width="29.04" height="49.9" x="-14.52" y="-24.95" fill="none" rx="0" ry="0" transform="translate(477.43 88.78)"></rect><path fill="#1f09ff" d="M496.925 112.568v-48.51h7.39v48.51Z"></path><rect width="7.39" height="48.51" x="-3.69" y="-24.25" fill="none" rx="0" ry="0" transform="translate(501.12 88.81)"></rect><path fill="#1f09ff" d="M511.315 112.568v-48.51h21.25v6.47h-13.93v13.39h11.22v6.6h-11.22v15.51h16.11v6.54Z"></path><rect width="23.43" height="48.51" x="-11.71" y="-24.25" fill="none" rx="0" ry="0" transform="translate(523.53 88.81)"></rect><path fill="#1f09ff" d="M539.295 112.568v-48.51h7.46v41.91h13.93v6.6Z"></path><rect width="21.39" height="48.51" x="-10.7" y="-24.25" fill="none" rx="0" ry="0" transform="translate(550.49 88.81)"></rect><path stroke="#1f09ff" stroke-width="5" d="M8.328 63.986h41.364m12.179-17.612V3.784M51.17 52.418 21.442 22.69m32.945 50.642L24.66 103.06m77.9-82.12L72.052 51.448" vector-effect="non-scaling-stroke"></path></svg></svg>